<svg xmlns="http://www.w3.org/2000/svg" viewBox="0 0 400 300">
  <defs>
    <linearGradient id="grad1" x1="0%" y1="0%" x2="100%" y2="0%">
      <stop offset="0%" style="stop-color:#3b82f6;stop-opacity:1" />
      <stop offset="100%" style="stop-color:#8b5cf6;stop-opacity:1" />
    </linearGradient>
  </defs>
  
  <!-- Background Elements -->
  <circle cx="50" cy="50" r="20" fill="#e0e7ff" opacity="0.5" />
  <circle cx="350" cy="250" r="30" fill="#e0e7ff" opacity="0.5" />
  
  <!-- Film Strip -->
  <path d="M50 100 H350 V200 H50 Z" fill="url(#grad1)" rx="10" />
  <rect x="60" y="110" width="20" height="80" fill="#ffffff" opacity="0.3" rx="2" />
  <rect x="100" y="110" width="200" height="80" fill="#ffffff" opacity="0.9" rx="2" />
  <rect x="320" y="110" width="20" height="80" fill="#ffffff" opacity="0.3" rx="2" />
  
  <!-- Analysis Graph -->
  <path d="M120 170 L160 140 L200 160 L240 130 L280 150" stroke="#3b82f6" stroke-width="3" fill="none" />
  <circle cx="120" cy="170" r="4" fill="#ef4444" />
  <circle cx="160" cy="140" r="4" fill="#22c55e" />
  <circle cx="200" cy="160" r="4" fill="#eab308" />
  <circle cx="240" cy="130" r="4" fill="#22c55e" />
  <circle cx="280" cy="150" r="4" fill="#3b82f6" />
  
  <!-- Floating Symbols -->
  <text x="320" y="80" font-family="Arial" font-size="40" fill="#22c55e" font-weight="bold">$</text>
  <path d="M80 240 L100 220 L120 240 L100 260 Z" fill="#f59e0b" />
</svg>